{"title":"Staunton Hill 2009 DVDRip Xvid BigPerm LKRG","uid":6190854,"size":1180308571,"categoryP":"video","categoryS":"movies","magnet":"?xt=urn:btih:432905104f700330f58a4e5470e23c0753996baf&amp;dn=Staunton+Hill+2009+DVDRip+Xvid+BigPerm+LKRG&amp;tr=udp%3A%2F%2Ftracker.openbittorrent.com%3A80&amp;tr=udp%3A%2F%2Fopen.demonii.com%3A1337&amp;tr=udp%3A%2F%2Ftracker.coppersurfer.tk%3A6969&amp;tr=udp%3A%2F%2Fexodus.desync.com%3A6969","seeders":1,"leechers":0,"uploader":"neon","files":-1,"time":1298280392,"description":"It's the fall of 1969 and winds of a change are blowing across America. But on a remote family farm in the hills of Virginia, a storm of evil has been brewing for years. Now for a group of young people hitchhiking to a rally in D.C., a detour to the nightmare homestead of Staunton's will rip apart their young lives forever. A grisly secret is waiting. The raw terror is growing. And the clan's brutal harvest is about to begin.\n &lt;a href=&quot;\nhttp://www.imdb.com/title/tt1118693/&quot; rel=&quot;nofollow&quot; target=&quot;_NEW&quot;&gt;\nhttp://www.imdb.com/title/tt1118693/&lt;/a&gt; \n &lt;a href=&quot;\nhttp://leetleech.org/images/15316738654552604821.png&quot; rel=&quot;nofollow&quot; target=&quot;_NEW&quot;&gt;\nhttp://leetleech.org/images/15316738654552604821.png&lt;/a&gt; &lt;a href=&quot;\nhttp://leetleech.org/images/82386536523629354980.png&quot; rel=&quot;nofollow&quot; target=&quot;_NEW&quot;&gt;\nhttp://leetleech.org/images/82386536523629354980.png&lt;/a&gt; &lt;a href=&quot;\nhttp://leetleech.org/images/27220533588509970065.png&quot; rel=&quot;nofollow&quot; target=&quot;_NEW&quot;&gt;\nhttp://leetleech.org/images/27220533588509970065.png&lt;/a&gt; &lt;a href=&quot;\nhttp://leetleech.org/images/69470518543953032492.png&quot; rel=&quot;nofollow&quot; target=&quot;_NEW&quot;&gt;\nhttp://leetleech.org/images/69470518543953032492.png&lt;/a&gt;\n\nCast\n\nKathy Lamkin ... Louise Staunton\nCristen Coppen ... Jordan\nDavid Rountree ... Cole\nKiko Ellsworth ... Boone\nChristine Carlo ... Raina\nPaula Rhodes ... Trish\nCharlie Bodin ... Quintin\nB.J. Hendricks ... Buddy\nCooper Huckabee ... Burgh\nSherry Weston ... Geraldine Staunton\n\n\nGeneral\nComplete name : Staunton Hill 2009 DVDRip Xvid BigPerm LKRG\\SH_LKRG.avi\nFormat : AVI\nFormat/Info : Audio Video Interleave\nFormat profile : OpenDML\nFile size : 1.10 GiB\nDuration : 1h 29mn\nOverall bit rate : 1 758 Kbps\n\nVideo\nID : 0\nFormat : MPEG-4 Visual\nFormat profile : Advanced Simple@L5\nFormat settings, BVOP : Yes\nFormat settings, QPel : No\nFormat settings, GMC : No warppoints\nFormat settings, Matrix : Default (H.263)\nCodec ID : XVID\nCodec ID/Hint : XviD\nDuration : 1h 29mn\nBit rate : 1 304 Kbps\nWidth : 704 pixels\nHeight : 396 pixels\nDisplay aspect ratio : 16:9\nFrame rate : 23.976 fps\nColor space : YUV\nChroma subsampling : 4:2:0\nBit depth : 8 bits\nScan type : Progressive\nCompression mode : Lossy\nBits/(Pixel*Frame) : 0.195\nStream size : 835 MiB (74%)\nWriting library : XviD 1.2.1 (UTC 2008-12-04)\n\nAudio\nID : 1\nFormat : AC-3\nFormat/Info : Audio Coding 3\nMode extension : CM (complete main)\nCodec ID : 2000\nDuration : 1h 29mn\nBit rate mode : Constant\nBit rate : 448 Kbps\nChannel(s) : 6 channels\nChannel positions : Front: L C R, Side: L R, LFE\nSampling rate : 48.0 KHz\nBit depth : 16 bits\nCompression mode : Lossy\nVideo delay : 42ms\nStream size : 287 MiB (25%)\nAlignment : Split accross interleaves\nInterleave, duration : 500 ms (11.99 video frames)\nInterleave, preload duration : 500 ms\nLanguage : English\n\n\nAll thanks to BigPerm\n","torrent":{"xt":"urn:btih:432905104f700330f58a4e5470e23c0753996baf","amp;dn":"Staunton+Hill+2009+DVDRip+Xvid+BigPerm+LKRG","amp;tr":["udp%3A%2F%2Ftracker.openbittorrent.com%3A80","udp%3A%2F%2Fopen.demonii.com%3A1337","udp%3A%2F%2Ftracker.coppersurfer.tk%3A6969","udp%3A%2F%2Fexodus.desync.com%3A6969"],"infoHash":"432905104f700330f58a4e5470e23c0753996baf","infoHashBuffer":{"type":"Buffer","data":[67,41,5,16,79,112,3,48,245,138,78,84,112,226,60,7,83,153,107,175]},"announce":[],"urlList":[]}}